<svg id="レイヤー_1" data-name="レイヤー 1" xmlns="http://www.w3.org/2000/svg" viewBox="0 0 100 100"><defs><style>.cls-1{fill:#dcdcdc;}</style></defs><title>logo</title><path class="cls-1" d="M96,4V96H4V4H96m4-4H0V100H100V0Z"/><polygon class="cls-1" points="44 8 40 8 40 48 44 48 44 8 44 8"/><polygon class="cls-1" points="40 44 12 44 12 48 40 48 40 44 40 44"/><polygon class="cls-1" points="12 8 8 8 8 48 12 48 12 8 12 8"/><polygon class="cls-1" points="28 48 24 48 24 92 28 92 28 48 28 48"/><polygon class="cls-1" points="56 8 52 8 52 48 56 48 56 8 56 8"/><polygon class="cls-1" points="89 52 85 52 85 92 89 92 89 52 89 52"/><polygon class="cls-1" points="89 48 52 48 52 52 89 52 89 48 89 48"/><polygon class="cls-1" points="89 8 52 8 52 12 89 12 89 8 89 8"/><polygon class="cls-1" points="89 88 52 88 52 92 89 92 89 88 89 88"/><path class="cls-1" d="M70,70h0m0-4a4,4,0,1,0,4,4,4,4,0,0,0-4-4Z"/><path class="cls-1" d="M70,29h0m0-4a4,4,0,1,0,4,4,4,4,0,0,0-4-4Z"/><path class="cls-1" d="M26,29h0m0-4a4,4,0,1,0,4,4,4,4,0,0,0-4-4Z"/></svg>